<svg width="68" height="70" viewBox="0 0 68 70" fill="none" xmlns="http://www.w3.org/2000/svg">
<path d="M65.7713 34.7733C65.7713 52.7472 51.4252 67.2714 33.7851 67.2714C16.145 67.2714 1.79893 52.7472 1.79893 34.7733C1.79893 16.7995 16.145 2.27524 33.7851 2.27524C51.4252 2.27524 65.7713 16.7995 65.7713 34.7733Z" stroke="#FF81A6" stroke-width="3.59785"/>
<path fill-rule="evenodd" clip-rule="evenodd" d="M32.9345 25.7524C33.0508 25.8688 33.1632 25.9876 33.2715 26.1087L33.5122 25.868L33.5391 25.8949C33.7115 25.6869 33.8951 25.4851 34.09 25.2902C37.4722 21.908 42.9559 21.908 46.3381 25.2902C49.7203 28.6725 49.7203 34.1561 46.3381 37.5384C46.1433 37.7332 45.9414 37.9168 45.7335 38.0892L45.7603 38.1161L33.7433 50.1331L33.2811 50.5953L21.2641 38.5783L21.291 38.5514C21.083 38.379 20.8812 38.1954 20.6864 38.0006C17.3042 34.6183 17.3042 29.1347 20.6864 25.7524C24.0686 22.3702 29.5523 22.3702 32.9345 25.7524Z" fill="#FF81A6"/>
</svg>
