<svg width="36" height="32" viewBox="0 0 36 32" fill="none" xmlns="http://www.w3.org/2000/svg">
<path fill-rule="evenodd" clip-rule="evenodd" d="M17.0663 3.69708C17.1972 3.82804 17.3237 3.96181 17.4456 4.09819L17.717 3.82682L17.7473 3.85712C17.9416 3.62269 18.1487 3.39519 18.3683 3.17555C22.1811 -0.63723 28.3587 -0.641369 32.1663 3.1663C35.974 6.97398 35.9699 13.1516 32.1571 16.9644C31.9375 17.184 31.71 17.391 31.4755 17.5854L31.5058 17.6156L31.2453 17.8762L31.2453 17.8762L17.438 31.6835L3.90935 18.1548L3.9397 18.1245C3.70553 17.9304 3.47831 17.7237 3.25897 17.5044C-0.548706 13.6967 -0.544568 7.5191 3.26821 3.70632C7.08099 -0.106454 13.2586 -0.110594 17.0663 3.69708Z" fill="white"/>
</svg>
